<svg xmlns="http://www.w3.org/2000/svg" viewBox="0 0 32 32">
  <rect width="32" height="32" rx="8" fill="#3d6fff"/>
  <path d="M16 7c-4.97 0-9 4.03-9 9s4.03 9 9 9 9-4.03 9-9-4.03-9-9-9zm.75 13.5v1.5h-1.5v-1.5c-1.66-.31-3-1.4-3-2.75h1.5c0 .69.93 1.25 2.25 1.25s2.25-.56 2.25-1.25c0-.76-1.01-1.25-2.25-1.25-1.93 0-3.75-.97-3.75-2.75 0-1.35 1.34-2.44 3-2.75V9.5h1.5V11c1.66.31 3 1.4 3 2.75h-1.5c0-.69-.93-1.25-2.25-1.25s-2.25.56-2.25 1.25c0 .76 1.01 1.25 2.25 1.25 1.93 0 3.75.97 3.75 2.75 0 1.35-1.34 2.44-3 2.75z" fill="white"/>
</svg>
